<?xml version="1.0" encoding="UTF-8"?>
<svg id="Layer_1" data-name="Layer 1" xmlns="http://www.w3.org/2000/svg" viewBox="0 0 83.75 75.41">
  <defs>
    <style>
      .cls-1 {
        fill: #231f20;
        stroke-width: 0px;
      }
    </style>
  </defs>
  <path class="cls-1" d="m17.6,0C3.99,9-4.45,28.45,2.47,47.3c7.17,19.51,26.86,31.35,48.28,27.32,18.89-3.56,31.78-19.74,32.99-35.09-1.21-.09-2.42-.18-3.63-.27-3.64,16.43-17.99,28.67-34.42,29.37-15.96.68-30.32-8.36-36.23-22.94C3.67,31.36,7.8,14.28,20.49,3.45c-.95-1.13-1.89-2.26-2.89-3.45Z"/>
  <path class="cls-1" d="m77.9,39.03c-.47-.05-.87-.01-1.19-.15-.95-.43-1.3.03-1.59.86-.3.85-.7,1.67-1.13,2.46-6.24,11.37-19.07,18.79-33.37,15.78-11.46-2.42-19.01-9.37-22.24-20.74-.54-1.91-.66-3.94-.97-5.87h-6.78c-.44,15.75,11.96,32.32,31.28,33.78,18.51,1.41,32.88-11.82,35.99-26.11Z"/>
  <path class="cls-1" d="m73.24,38.52c-.78-.63-1.18-.78-1.77.01-6.14,8.28-14.36,11.76-24.53,10.05-15.13-2.54-23.15-19.32-15.79-32.76,1.8-3.29,4.18-6.1,7.18-8.4-.57-.7-1.08-1.34-1.62-2.01-.49.28-.92.52-1.33.77-9.94,6.02-15.34,16.99-13.68,27.8,1.72,11.26,11.9,20.62,23.29,21.29,10.64.62,19.08-3.57,25.39-12.07,1.09-1.47,1.91-3.13,2.85-4.69Z"/>
</svg>